<?xml version="1.0" encoding="utf-8"?>
<!-- Generator: Adobe Illustrator 15.0.2, SVG Export Plug-In  -->
<!DOCTYPE svg PUBLIC "-//W3C//DTD SVG 1.1//EN" "http://www.w3.org/Graphics/SVG/1.1/DTD/svg11.dtd" [
	<!ENTITY ns_flows "http://ns.adobe.com/Flows/1.0/">
]>
<svg version="1.1"
	 xmlns="http://www.w3.org/2000/svg" xmlns:xlink="http://www.w3.org/1999/xlink" xmlns:a="http://ns.adobe.com/AdobeSVGViewerExtensions/3.0/"
	 x="0px" y="0px" width="110px" height="110px" viewBox="0 0 110 110" overflow="visible" enable-background="new 0 0 110 110"
	 xml:space="preserve">
<defs>
</defs>
<g>
	<path fill="#FFFFFF" d="M11.001,108.706c-5.353,0-9.708-4.354-9.708-9.706V11c0-5.352,4.355-9.707,9.708-9.707H99
		c5.352,0,9.707,4.354,9.707,9.707v88c0,5.353-4.354,9.706-9.707,9.706H11.001z"/>
	<path fill="#B4B4B5" d="M99,2.587c4.639,0,8.413,3.774,8.413,8.413v88c0,4.639-3.774,8.413-8.413,8.413H11.001
		c-4.64,0-8.414-3.774-8.414-8.413V11c0-4.639,3.774-8.413,8.414-8.413H99 M99,0H11.001C4.95,0,0,4.95,0,11v88
		c0,6.051,4.95,11,11.001,11H99c6.05,0,11-4.949,11-11V11C110,4.95,105.05,0,99,0L99,0z"/>
</g>
<polyline fill="none" stroke="#231815" stroke-width="2.5734" stroke-linecap="round" stroke-linejoin="round" stroke-miterlimit="10" points="
	16.684,78.708 23.411,75.687 23.411,69.663 "/>
<polyline fill="none" stroke="#231815" stroke-width="2.5734" stroke-linecap="round" stroke-linejoin="round" stroke-miterlimit="10" points="
	48.368,78.708 41.638,75.687 41.638,69.663 "/>
<path fill="none" stroke="#231815" stroke-width="2.5734" stroke-linecap="round" stroke-linejoin="round" stroke-miterlimit="10" d="
	M46.955,44.623c0,0-0.467-7.591-3.927-10.656c-4.014-3.554-11.059,3.332-19.063-1.443c0,0-4.968,4.49-5.485,12.1"/>
<path fill="none" stroke="#231815" stroke-width="2.5734" stroke-linecap="round" stroke-linejoin="round" stroke-miterlimit="10" d="
	M50.849,46.649c0,0,5.592-13.876-10.03-21.792c-12.971-6.571-18.033,2.244-18.033,2.244S10.75,25.76,13.69,46.514"/>
<path fill="none" stroke="#231815" stroke-width="2.5734" stroke-linecap="round" stroke-linejoin="round" stroke-miterlimit="10" d="
	M20.127,63.341c-3.232-1.617-2.728-5.962-4.161-5.559c-2.237,0.631-5.943-4.647-4.427-8.891c1.515-4.243,3.739-1.516,3.739-1.516"/>
<path fill="none" stroke="#231815" stroke-width="2.5734" stroke-linecap="round" stroke-linejoin="round" stroke-miterlimit="10" d="
	M44.84,63.341c3.234-1.617,2.729-5.962,4.163-5.559c2.238,0.631,5.943-4.647,4.427-8.891c-1.517-4.243-3.739-1.516-3.739-1.516"/>
<line fill="none" stroke="#00A6DB" stroke-width="2.5734" stroke-linecap="round" stroke-linejoin="round" stroke-miterlimit="10" x1="15.279" y1="47.375" x2="20.897" y2="54.26"/>
<line fill="none" stroke="#00A6DB" stroke-width="2.5734" stroke-linecap="round" stroke-linejoin="round" stroke-miterlimit="10" x1="49.691" y1="47.375" x2="44.073" y2="54.26"/>
<line fill="none" stroke="#00A6DB" stroke-width="2.5734" stroke-linecap="round" stroke-linejoin="round" stroke-miterlimit="10" x1="16.211" y1="57.719" x2="20.897" y2="61.809"/>
<line fill="none" stroke="#00A6DB" stroke-width="2.5734" stroke-linecap="round" stroke-linejoin="round" stroke-miterlimit="10" x1="48.76" y1="57.719" x2="44.073" y2="61.809"/>
<line fill="none" stroke="#00A6DB" stroke-width="2.5734" stroke-linecap="round" stroke-linejoin="round" stroke-miterlimit="10" x1="44.072" y1="54.258" x2="44.072" y2="66.537"/>
<path fill="none" stroke="#00A6DB" stroke-width="2.5734" stroke-linecap="round" stroke-linejoin="round" stroke-miterlimit="10" d="
	M20.899,66.537V54.258c0,0,5.625-1.145,9.266-2.259c1.514-0.465,3.126-0.465,4.642,0c3.64,1.114,9.266,2.259,9.266,2.259v12.279
	c-2.363,5.694-12.284,4.987-12.284,4.987h1.394C33.183,71.524,23.263,72.231,20.899,66.537V54.258"/>
<path fill="#231815" d="M27.043,47.829c0-1.106-0.897-2.003-2.003-2.003s-2.001,0.896-2.001,2.003c0,1.105,0.896,2.004,2.001,2.004
	S27.043,48.935,27.043,47.829"/>
<path fill="#231815" d="M41.932,47.829c0-1.106-0.896-2.003-2.003-2.003c-1.105,0-2.001,0.896-2.001,2.003
	c0,1.105,0.896,2.004,2.001,2.004C41.035,49.833,41.932,48.935,41.932,47.829"/>
<path fill="none" stroke="#231815" stroke-width="2.5734" stroke-linecap="round" stroke-linejoin="round" stroke-miterlimit="10" d="
	M91.651,56.887c0.413,4.199-2.452,25.064,2.271,30.495"/>
<path fill="none" stroke="#231815" stroke-width="2.5734" stroke-linecap="round" stroke-linejoin="round" stroke-miterlimit="10" d="
	M64.072,56.753c-0.413,4.198,2.453,25.062-2.27,30.494"/>
<path fill="none" stroke="#231815" stroke-width="2.5734" stroke-linecap="round" stroke-linejoin="round" stroke-miterlimit="10" d="
	M99.685,89.243C93.491,83,95.84,66.086,96.442,58.777"/>
<polyline fill="none" stroke="#231815" stroke-width="2.5734" stroke-linecap="round" stroke-linejoin="round" stroke-miterlimit="10" points="
	62.276,90.838 71.797,87.816 71.797,79.931 "/>
<polyline fill="none" stroke="#231815" stroke-width="2.5734" stroke-linecap="round" stroke-linejoin="round" stroke-miterlimit="10" points="
	93.96,90.838 84.439,87.816 84.439,79.931 "/>
<path fill="none" stroke="#231815" stroke-width="2.5734" stroke-linecap="round" stroke-linejoin="round" stroke-miterlimit="10" d="
	M92.547,56.753c0,0-0.48-0.646-5.021-1.5c-9.449-1.777-9.961-5.824-17.97-10.6c0,0-4.737,4.508-5.483,12.1"/>
<path fill="none" stroke="#231815" stroke-width="2.5734" stroke-linecap="round" stroke-linejoin="round" stroke-miterlimit="10" d="
	M56.041,89.106c6.196-6.24,3.846-23.157,3.245-30.465c-1.724-20.89,9.094-19.412,9.094-19.412s5.062-8.814,18.033-2.243
	c15.621,7.915,10.03,21.792,10.03,21.792"/>
<line fill="none" stroke="#00A6DB" stroke-width="2.5734" stroke-linecap="round" stroke-linejoin="round" stroke-miterlimit="10" x1="61.803" y1="61.366" x2="66.489" y2="66.386"/>
<line fill="none" stroke="#00A6DB" stroke-width="2.5734" stroke-linecap="round" stroke-linejoin="round" stroke-miterlimit="10" x1="94.354" y1="61.366" x2="89.665" y2="66.386"/>
<line fill="none" stroke="#00A6DB" stroke-width="2.5734" stroke-linecap="round" stroke-linejoin="round" stroke-miterlimit="10" x1="62.734" y1="70.09" x2="66.489" y2="75.108"/>
<line fill="none" stroke="#00A6DB" stroke-width="2.5734" stroke-linecap="round" stroke-linejoin="round" stroke-miterlimit="10" x1="93.421" y1="70.09" x2="89.665" y2="75.108"/>
<path fill="none" stroke="#00A6DB" stroke-width="2.5734" stroke-linecap="round" stroke-linejoin="round" stroke-miterlimit="10" d="
	M66.489,66.388v8.556c2.365,5.695,11.587,6.848,11.587,6.848s9.224-1.152,11.588-6.848v-8.556c0,0-5.625-1.146-9.266-2.26
	c-1.516-0.465-3.128-0.465-4.643,0C72.116,65.241,66.489,66.388,66.489,66.388"/>
<path fill="#231815" d="M72.635,59.958c0-1.106-0.896-2.004-2.002-2.004c-1.106,0-2.003,0.897-2.003,2.004
	c0,1.105,0.897,2.003,2.003,2.003C71.739,61.961,72.635,61.063,72.635,59.958"/>
<path fill="#231815" d="M87.524,59.958c0-1.106-0.896-2.004-2.002-2.004c-1.106,0-2.002,0.897-2.002,2.004
	c0,1.105,0.896,2.003,2.002,2.003C86.628,61.961,87.524,61.063,87.524,59.958"/>
</svg>
