<?xml version="1.0" encoding="utf-8"?>
<!-- Generator: Adobe Illustrator 15.0.2, SVG Export Plug-In  -->
<!DOCTYPE svg PUBLIC "-//W3C//DTD SVG 1.1//EN" "http://www.w3.org/Graphics/SVG/1.1/DTD/svg11.dtd" [
	<!ENTITY ns_flows "http://ns.adobe.com/Flows/1.0/">
]>
<svg version="1.1"
	 xmlns="http://www.w3.org/2000/svg" xmlns:xlink="http://www.w3.org/1999/xlink" xmlns:a="http://ns.adobe.com/AdobeSVGViewerExtensions/3.0/"
	 x="0px" y="0px" width="110px" height="110px" viewBox="0 0 110 110" overflow="visible" enable-background="new 0 0 110 110"
	 xml:space="preserve">
<defs>
</defs>
<g>
	<path fill="#FFFFFF" d="M11,108.706c-5.353,0-9.706-4.354-9.706-9.706V10.999c0-5.352,4.354-9.706,9.706-9.706h88
		c5.353,0,9.706,4.354,9.706,9.706V99c0,5.353-4.354,9.706-9.706,9.706H11z"/>
	<path fill="#B4B4B5" d="M99,2.587c4.639,0,8.413,3.774,8.413,8.412V99c0,4.639-3.774,8.413-8.413,8.413H11
		c-4.639,0-8.413-3.774-8.413-8.413V10.999c0-4.638,3.774-8.412,8.413-8.412H99 M99,0H11C4.95,0,0,4.951,0,10.999V99
		c0,6.051,4.95,11,11,11h88c6.05,0,11-4.949,11-11V10.999C110,4.951,105.05,0,99,0L99,0z"/>
</g>
<path fill="#231815" d="M71.583,49.371L71.583,49.371L71.583,49.371z M71.583,49.371c-0.001,0-0.001-0.002-0.001-0.002
	S71.582,49.371,71.583,49.371"/>
<path fill="#231815" d="M39.812,49.879c0.042,0.004,0.081,0.007,0.126,0.007c0.549,0,1.015-0.358,1.193-0.867
	c-0.453,0.2-0.941,0.474-1.462,0.818C39.717,49.85,39.761,49.874,39.812,49.879"/>
<path fill="#231815" d="M81.719,84.979c-5.973-6.017-4.437-22.326-3.615-31.089c0.092-0.982,0.177-1.878,0.243-2.685
	c0.674-1.919,5.477-17.481-12.196-26.436c-13.45-6.814-20.182,0.131-21.923,2.41c-1.308,0.025-3.952,0.395-6.37,2.687
	c-1.519,1.44-2.681,3.368-3.498,5.769c1.085-0.451,2.159-0.677,3.095-0.775c0.65-1.389,1.398-2.379,2.124-3.079
	c2.399-2.312,5.021-2.025,5.123-2.013c0.522,0.069,1.025-0.183,1.286-0.629c0.217-0.367,5.457-8.934,19-2.074
	c16.618,8.422,11.14,22.773,10.899,23.377c-0.028,0.065-0.022,0.131-0.037,0.197c-0.013,0.063-0.045,0.115-0.05,0.18
	c-0.069,0.839-0.162,1.792-0.258,2.83c-0.928,9.827-2.47,26.272,4.347,33.143c0.251,0.252,0.582,0.379,0.913,0.379
	c0.327,0,0.657-0.122,0.908-0.371C82.214,86.297,82.217,85.482,81.719,84.979"/>
<path fill="#231815" d="M74.624,85.634l-10.028-3.182v-8.107c0-0.101-0.036-0.188-0.06-0.285c2.404-1.336,4.085-3.148,5.228-4.861
	c0.134,6.434,0.934,12.494,3.456,15.395c0.255,0.295,0.612,0.442,0.972,0.442c0.298,0,0.6-0.103,0.843-0.314
	c0.536-0.465,0.594-1.278,0.126-1.816c-3.657-4.205-2.912-18.486-2.468-27.016c0.131-2.49,0.239-4.584,0.227-6.044
	c0.163-0.04,0.322-0.106,0.465-0.211c0.569-0.426,0.687-1.23,0.261-1.804c-0.211-0.282-0.852-1.138-6.557-2.213
	c-6.555-1.234-9.044-3.362-12.493-6.308c-1.998-1.708-4.265-3.644-7.708-5.695c-0.494-0.299-1.126-0.223-1.545,0.171
	c-0.08,0.078-0.776,0.759-1.688,1.962c0.763,0.394,1.461,0.915,2.062,1.561c0.275-0.367,0.535-0.693,0.745-0.94
	c2.772,1.742,4.724,3.411,6.464,4.898c3.466,2.96,6.459,5.519,13.687,6.878c1.763,0.332,2.921,0.628,3.703,0.862
	c0.098,1.216-0.036,3.779-0.188,6.748c-0.119,2.253-0.25,4.775-0.322,7.382c-0.135,0.156-0.244,0.334-0.29,0.548
	c-0.084,0.398-2.253,9.821-13.289,9.821c-11.121,0-14.321-9.776-14.458-10.219c-0.009-0.022-0.027-0.04-0.039-0.065
	c-0.071-2.689-0.206-5.3-0.327-7.62c-0.149-2.857-0.276-5.34-0.201-6.607c-0.021,0.011-0.043,0.018-0.067,0.028
	c-0.179,0.508-0.645,0.867-1.193,0.867c-0.041,0-0.082-0.003-0.126-0.007c-0.051-0.006-0.095-0.03-0.143-0.042
	c-0.342,0.222-0.69,0.469-1.059,0.752c0.024,1.373,0.114,3.127,0.221,5.142c0.444,8.536,1.187,22.812-2.471,27.017
	c-0.465,0.537-0.41,1.352,0.128,1.816c0.244,0.211,0.543,0.314,0.841,0.314c0.359,0,0.717-0.148,0.972-0.443
	c2.572-2.953,3.352-9.195,3.462-15.765c1.3,1.82,3.192,3.801,5.833,5.265c-0.044,0.129-0.081,0.263-0.081,0.408v8.107l-10.032,3.182
	c-0.674,0.215-1.05,0.938-0.836,1.616c0.175,0.549,0.682,0.897,1.227,0.897c0.13,0,0.261-0.018,0.389-0.062l10.929-3.467
	c0.532-0.169,0.896-0.667,0.896-1.227v-8.331c1.774,0.625,3.803,1.014,6.137,1.014c2.229,0,4.134-0.354,5.797-0.914v8.231
	c0,0.56,0.365,1.058,0.899,1.227l10.925,3.467c0.133,0.044,0.263,0.062,0.391,0.062c0.546,0,1.054-0.349,1.226-0.897
	C75.676,86.571,75.301,85.849,74.624,85.634"/>
<path fill="#231815" d="M47.464,54.58c1.27,0,2.297-1.031,2.297-2.3c0-1.267-1.027-2.298-2.297-2.298
	c-1.268,0-2.299,1.031-2.299,2.298C45.165,53.549,46.196,54.58,47.464,54.58"/>
<path fill="#231815" d="M66.85,52.28c0-1.27-1.03-2.298-2.3-2.298s-2.296,1.028-2.296,2.298c0,1.269,1.026,2.3,2.296,2.3
	S66.85,53.549,66.85,52.28"/>
<path fill="#231815" d="M35.979,53.488c-0.019-0.194-0.033-0.367-0.054-0.555c-0.744,0.716-1.528,1.513-2.358,2.407
	c0.83,9.022,1.861,23.817-3.765,29.485c-0.495,0.503-0.495,1.319,0.009,1.818c0.251,0.249,0.578,0.371,0.907,0.371
	s0.662-0.125,0.914-0.378C38.45,79.765,36.902,63.317,35.979,53.488"/>
<path fill="#00A6DB" d="M46.865,38.875c-0.33-0.584-0.72-1.104-1.15-1.568c-0.601-0.646-1.299-1.167-2.062-1.563
	c-1.046-0.541-2.217-0.855-3.476-0.877c-0.337-0.045-1.383-0.151-2.724-0.006c-0.936,0.099-2.01,0.324-3.095,0.775
	c-1.076,0.444-2.161,1.108-3.121,2.108c-3.514,3.654-10.015,12.279-12.824,19.186c-1.899,4.669,0.022,6.858,1.332,7.746
	c0.97,0.652,2.247,0.989,3.396,0.989c0.972,0,1.849-0.244,2.363-0.738c0.226-0.219,0.579-0.662,1.415-1.729
	c2.453-3.117,4.667-5.733,6.646-7.856c0.83-0.895,1.614-1.691,2.358-2.407c0.965-0.928,1.863-1.711,2.682-2.343
	c0.369-0.283,0.721-0.53,1.061-0.753c0.522-0.342,1.011-0.617,1.464-0.816c0.035-0.096,0.075-0.188,0.089-0.294
	c-0.009,0.078-0.014,0.176-0.021,0.266c0.609-0.261,1.157-0.407,1.638-0.407c0.05,0,0.103,0.003,0.155,0.003
	c1.81,0,3.283-0.812,4.167-2.29C48.353,44.292,48.235,41.311,46.865,38.875 M32.896,39.736c0.01,0.002,0.018,0.011,0.028,0.017
	c0.143,0.048,0.287,0.101,0.429,0.155c1.051,0.411,2.069,0.995,2.386,1.372c-0.736,0.891-1.857,1.996-2.768,2.859
	c-0.251,0.235-0.493,0.464-0.699,0.654l-2.25-1.711C31.083,41.756,32.064,40.618,32.896,39.736 M44.948,44.981
	c-0.412,0.693-1.053,1.032-1.956,1.032c-0.048,0-0.098-0.002-0.148-0.002c-0.389,0-0.796,0.063-1.209,0.155
	c-0.9,0.204-1.847,0.601-2.829,1.188c-1.018,0.603-2.073,1.397-3.149,2.319c-0.791,0.681-1.596,1.433-2.407,2.247
	c-2.785,2.791-5.645,6.25-8.349,9.686c-0.463,0.589-0.94,1.193-1.131,1.412c-0.43,0.156-1.938,0.161-2.868-0.701
	c-1.141-1.058-0.687-2.984-0.105-4.418c1.681-4.13,4.76-8.917,7.652-12.781l3.125,2.372c0.227,0.176,0.502,0.261,0.775,0.261
	c0.219,0,0.428-0.073,0.621-0.183c0.081-0.045,0.162-0.079,0.231-0.142c0.078-0.064,1.149-1.025,2.326-2.17
	c0.817-0.804,1.685-1.699,2.3-2.463c0.511-0.63,0.671-1.386,0.457-2.118c-0.265-0.91-1.119-1.649-2.036-2.207
	c-0.281-0.177-0.571-0.333-0.855-0.473c0.357-0.144,0.706-0.248,1.053-0.336c0.904-0.229,1.754-0.297,2.378-0.297
	c0.634,0,1.039,0.06,1.056,0.06c0.059,0.011,0.126,0.018,0.188,0.018c0.839,0.005,1.533,0.188,2.129,0.456
	c0.944,0.419,1.6,1.06,2.035,1.651c0.153,0.208,0.292,0.412,0.393,0.592C45.525,41.744,45.663,43.78,44.948,44.981"/>
</svg>
