<?xml version="1.0" encoding="utf-8"?>
<!-- Generator: Adobe Illustrator 15.0.2, SVG Export Plug-In  -->
<!DOCTYPE svg PUBLIC "-//W3C//DTD SVG 1.1//EN" "http://www.w3.org/Graphics/SVG/1.1/DTD/svg11.dtd" [
	<!ENTITY ns_flows "http://ns.adobe.com/Flows/1.0/">
]>
<svg version="1.1"
	 xmlns="http://www.w3.org/2000/svg" xmlns:xlink="http://www.w3.org/1999/xlink" xmlns:a="http://ns.adobe.com/AdobeSVGViewerExtensions/3.0/"
	 x="0px" y="0px" width="270px" height="270px" viewBox="-0.488 -0.005 270 270"
	 overflow="visible" enable-background="new -0.488 -0.005 270 270" xml:space="preserve">
<defs>
</defs>
<rect display="none" fill-rule="evenodd" clip-rule="evenodd" fill="#0071BC" width="270" height="270"/>
<path fill-rule="evenodd" clip-rule="evenodd" fill="#FFFFFF" d="M88.512,177.518c9.165-0.624,18.334-1.245,27.498-1.869
	c-0.371-38.811,24.038-56.792,53.167-65.373c0-0.622,0-1.244,0-1.866C120.082,106.63,88.719,130.215,88.512,177.518z"/>
<path fill-rule="evenodd" clip-rule="evenodd" fill="#FFFFFF" d="M95.937,138.199c0.612,0,1.222,0,1.833,0
	c8.423-29.676,26.069-54.544,64.164-54.164c14.742,0,17.578-8.785,17.578-13.464c0-4.903-2.836-14.554-15.744-14.554
	C117.339,56.228,94.19,88.18,95.937,138.199z"/>
<path fill-rule="evenodd" clip-rule="evenodd" fill="#FFFFFF" d="M163.379,96.04c0,2.084-1.662,3.777-3.706,3.777
	c-2.048,0-3.709-1.693-3.709-3.777s1.661-3.777,3.709-3.777C161.717,92.263,163.379,93.955,163.379,96.04z"/>
<path fill="#FFFFFF" d="M90.742,35.887c-3.895-0.132-10.474-1.364-13.752-2.046c-0.638-0.132-1.298-0.264-2.046-0.264
	c-0.66,0-1.408,0.11-2.267,0.396c-0.132,0.044-0.242,0.066-0.352,0.066c-0.176,0-0.55-0.088-0.55-0.946
	c0-0.33,0.176-0.44,1.606-0.638c1.1-0.99,1.98-1.958,2.553-2.685c0.022-0.044,0.044-0.066,0.044-0.11
	c0-0.176-0.771-0.792-1.606-1.342c-0.396-0.264-0.572-0.528-0.572-0.858c0-0.264,0.132-0.572,0.375-0.946l1.408-2.046l-2.024,0.264
	c-0.198,0.022-0.352,0.044-0.462,0.044c-0.704,0-1.078-0.704-1.166-1.056c-0.022-0.044-0.022-0.088-0.022-0.132
	c0-0.11,0.044-0.154,0.132-0.154c0.044,0,0.088,0.022,0.132,0.022c0.22,0.044,0.44,0.066,0.66,0.066c0.11,0,0.22-0.022,0.33-0.022
	l3.278-0.352c0.088,0,0.154-0.022,0.22-0.022c0.088,0,0.858,0.286,0.858,0.726c0,0.264-0.264,0.44-0.396,0.594
	c-0.132,0.176-2.024,2.618-2.024,2.816c0,0.066,0.044,0.11,0.11,0.154c0.616,0.396,1.101,0.814,1.694,1.364
	c0.264,0.242,0.418,0.55,0.418,0.88c0,0.286-0.132,0.616-0.396,0.902c-0.572,0.616-1.144,1.254-1.738,1.804
	c0.638,0.022,1.276,0.11,2.002,0.242c3.323,0.66,9.901,1.87,14.192,1.87h0.11c0.33,0,0.506,0.044,0.506,0.198
	c0,0.066-0.374,1.21-1.1,1.21H90.742z M76.33,21.783c-0.198,0-0.352-0.132-0.528-0.418c-0.726-1.056-1.606-2.068-2.42-2.86
	c-0.176-0.176-0.264-0.308-0.264-0.44c0-0.264,0.55-0.616,0.748-0.616c0.462,0,3.344,3.037,3.344,3.499
	C77.209,21.211,76.726,21.783,76.33,21.783z M80.752,24.292c-0.396,3.037-1.21,5.303-3.014,7.349
	c-0.286,0.308-0.484,0.44-0.616,0.44c-0.088,0-0.154-0.066-0.154-0.176c0-0.154,0.088-0.396,0.286-0.682
	c1.716-2.772,2.354-5.875,2.531-9.77l-0.771,0.066c-0.176,0-0.308,0.022-0.44,0.022c-0.22,0-0.396-0.022-0.572-0.154
	c-0.22-0.242-0.374-0.594-0.44-0.836c-0.022-0.044-0.022-0.088-0.022-0.11c0-0.066,0.044-0.088,0.11-0.088h0.044
	c0.33,0.044,0.638,0.088,0.968,0.088h0.198l1.606-0.11l0.022-2.662c0-0.198-0.066-0.418-0.264-0.66
	c-0.022-0.044-0.044-0.088-0.044-0.11c0-0.11,0.132-0.154,0.352-0.154c0.132,0,0.286,0.022,0.462,0.066
	c0.462,0.11,0.748,0.22,0.748,0.484l-0.066,2.948l0.374-0.022c0.44-0.022,0.682-0.132,0.902-0.22
	c0.066-0.044,0.132-0.044,0.22-0.044c0.396,0,1.1,0.616,1.1,0.858c0,0.154-0.176,0.286-0.484,0.308l-2.729,0.242
	c-0.044,0.616-0.088,1.232-0.176,1.826l1.672-0.088h0.176c0.198,0,0.374,0.022,0.572,0.154c0.308,0.264,0.374,0.44,0.374,0.594
	c0,0.176-0.088,0.33-0.11,0.55c-0.088,2.134-0.286,4.312-0.616,6.315c-0.308,1.782-1.298,1.914-1.43,1.914
	c-0.374,0-0.902-0.418-1.826-1.914c-0.132-0.198-0.198-0.352-0.198-0.462c0-0.11,0.066-0.154,0.154-0.154s0.264,0.088,0.462,0.242
	c0.308,0.242,0.771,0.572,1.145,0.748c0.022,0.022,0.066,0.022,0.088,0.022c0.088,0,0.154-0.044,0.176-0.11
	c0.572-2.223,0.726-4.489,0.814-6.777L80.752,24.292z M88.541,27.504c0.154,0.946,0.198,1.826,0.198,2.596
	c0,2.552-0.616,3.366-1.32,3.366c-0.858,0-2.508-1.98-2.508-2.464c0-0.088,0.044-0.132,0.132-0.132c0.132,0,0.33,0.088,0.594,0.264
	c1.188,0.792,1.364,0.792,1.43,0.792c0.11,0,0.198-0.066,0.22-0.198c0.154-0.771,0.22-1.562,0.22-2.333
	c0-0.616-0.044-1.254-0.132-1.826l-1.716,0.11c-0.132,0-0.264,0.022-0.374,0.022c-0.946,0-1.188-0.704-1.254-1.012
	c-0.022-0.044-0.022-0.066-0.022-0.088c0-0.066,0.044-0.11,0.132-0.11c0.044,0,0.066,0.022,0.11,0.022
	c0.286,0.066,0.572,0.11,0.902,0.11h0.198l1.782-0.132c-0.198-0.748-0.484-1.364-0.792-1.893c-0.044-0.088-0.066-0.154-0.066-0.22
	c0-0.264,0.572-0.55,0.792-0.55c0.132,0,0.264,0.088,0.374,0.264c0.396-0.44,0.814-0.99,1.122-1.54l-1.936,0.22
	c-0.22,0.022-0.396,0.044-0.528,0.044c-0.352,0-0.704-0.066-0.968-0.946c-0.022-0.044-0.022-0.088-0.022-0.132
	c-0.44,0.748-0.99,1.364-1.21,1.364c-0.088,0-0.132-0.066-0.132-0.176c0-0.132,0.066-0.308,0.176-0.55
	c1.298-2.486,1.915-5.369,1.915-5.611c0-0.132-0.022-0.286-0.088-0.44c-0.022-0.044-0.022-0.088-0.022-0.132
	c0-0.11,0.044-0.176,0.198-0.176c0.242,0,1.32,0.33,1.32,0.858c0,0.044,0,0.088-0.022,0.132c-0.242,0.814-0.484,1.452-0.771,2.156
	l2.553-0.264c0.264-0.022,0.506-0.022,0.858-0.154c0.066-0.022,0.11-0.044,0.176-0.044c0.374,0,1.012,0.616,1.012,0.858
	c0,0.176-0.132,0.308-0.396,0.33l-4.687,0.352c-0.242,0.484-0.528,0.968-0.814,1.43c-0.022,0.022,0.044,0,0.11,0h0.066
	c0.198,0.066,0.374,0.088,0.594,0.088c0.088,0,0.198-0.022,0.33-0.022l2.926-0.242h0.132c0.132,0,0.924,0.154,0.924,0.572
	c0,0.264-0.308,0.528-0.396,0.638c-0.572,0.858-1.21,1.606-1.936,2.31c0.176,0.418,0.33,0.902,0.44,1.408l1.034-0.066
	c0.418-0.022,0.66-0.066,0.968-0.154c0.066-0.022,0.11-0.044,0.154-0.044c0.242,0,0.968,0.484,0.968,0.858
	c0,0.176-0.154,0.308-0.44,0.33L88.541,27.504z"/>
<path fill="#FFFFFF" d="M99.87,34.149c-2.134,0-3.411-2.31-3.411-5.325c0-3.036,1.562-6.073,3.674-8.383
	c-1.21,0.44-2.904,0.88-3.344,0.88c-0.11,0-0.22-0.022-0.33-0.066c-0.176-0.11-0.858-0.704-0.858-1.1
	c0-0.066,0.022-0.132,0.066-0.176c0.044-0.022,0.088-0.044,0.154-0.044c0.198,0,0.484,0.11,0.748,0.11
	c0.066,0,0.11-0.022,0.154-0.022c1.738-0.352,4.51-1.056,4.995-1.474c0.11-0.088,0.22-0.132,0.352-0.132
	c0.418,0,0.924,0.462,0.924,0.814c0,0.154-0.088,0.308-0.286,0.462c-2.883,2.024-4.841,5.963-4.841,9.109
	c0,3.234,1.43,3.983,1.958,3.983c4.665,0,6.821-10.826,6.821-11.684c0-0.242-0.022-0.418-0.022-0.572
	c0-0.264,0.044-0.682,0.792-0.682c0.308,0,0.638,0.132,0.66,0.572c0.11,1.232,0.682,6.117,2.266,7.481
	c0.198,0.154,0.44,0.396,0.44,0.814c0,0.462-0.308,1.012-0.704,1.012c-0.836,0-1.958-2.178-2.707-5.765
	C106.229,28.538,103.808,34.149,99.87,34.149z M111.047,22.025c-0.154,0-0.308-0.044-0.44-0.22c-0.638-0.748-1.474-1.518-1.936-1.87
	c-0.11-0.088-0.154-0.198-0.154-0.308c0-0.286,0.264-0.572,0.572-0.572c0.088,0,0.198,0.022,0.286,0.088
	c0.616,0.374,1.892,1.518,2.156,1.87c0.066,0.11,0.11,0.22,0.11,0.33c0,0.154-0.066,0.286-0.132,0.418
	C111.421,21.894,111.245,22.025,111.047,22.025z M112.235,20.551c-0.66-0.704-1.496-1.452-2.002-1.848
	c-0.11-0.088-0.154-0.198-0.154-0.308c0-0.286,0.286-0.572,0.594-0.572c0.11,0,0.242,0.044,0.352,0.132
	c1.694,1.32,2.201,1.716,2.201,2.134c0,0.154-0.044,0.638-0.594,0.638C112.499,20.727,112.367,20.683,112.235,20.551z"/>
<path fill="#FFFFFF" d="M125.914,24.072c-0.418,6.557-2.794,10.826-4.027,10.826c-0.286,0-0.616-0.132-0.88-0.396
	c-0.594-0.572-1.892-2.53-2.024-2.816c-0.088-0.198-0.132-0.352-0.132-0.462c0-0.154,0.066-0.22,0.176-0.22
	c0.088,0,0.242,0.066,0.396,0.22c0.616,0.594,1.782,1.496,2.156,1.782c0.022,0,0.22,0,0.242-0.022
	c0.99-0.66,2.574-5.369,2.685-8.757c0-0.462-0.198-0.88-0.836-0.88c-0.418,0-1.716,0.286-2.222,0.418
	c-0.924,2.222-2.046,4.577-2.97,6.425c-0.132,0.264-0.396,0.462-0.682,0.462c-0.132,0-0.264-0.044-0.396-0.132
	c-0.198-0.154-0.308-0.374-0.308-0.616c0-0.176,0.044-0.352,0.154-0.528c0.77-1.166,1.738-3.146,2.597-5.193
	c-1.232,0.352-2.201,0.682-2.354,0.77c-0.198,0.11-0.418,0.176-0.638,0.176c-0.704,0-1.232-0.946-1.232-1.122v-0.044
	c0.022-0.11,0.11-0.132,0.22-0.132c0.088,0,0.176,0.022,0.264,0.022c0.154,0.022,0.264,0.022,0.396,0.022c0.11,0,0.22,0,0.352-0.044
	c0.77-0.242,2.068-0.66,3.564-1.056c0.198-0.484,1.474-3.895,1.474-4.511c0-0.11-0.022-0.22-0.066-0.286
	c-0.044-0.132-0.154-0.242-0.154-0.374c0-0.044,0.022-0.066,0.044-0.11c0.044-0.066,0.132-0.11,0.264-0.11
	c0.308,0,1.232,0.264,1.298,0.704c0.022,0.066,0.022,0.132,0.022,0.22c0,0.242-0.308,1.541-1.298,4.093
	c1.276-0.264,1.584-0.286,1.738-0.286c0.968,0,2.178,0.528,2.178,1.826V24.072z M133.021,29.154c-0.286,0-0.528-0.132-0.616-0.418
	c-0.374-1.232-2.596-4.555-4.026-5.787c-0.22-0.198-0.308-0.396-0.308-0.572c0-0.154,0.066-0.286,0.198-0.418
	c0.132-0.11,0.242-0.176,0.396-0.176c0.792,0,5.192,5.237,5.192,6.623C133.857,28.846,133.439,29.154,133.021,29.154z
	 M131.723,22.554c-0.572-0.66-1.386-1.497-1.892-1.871c-0.11-0.088-0.154-0.198-0.154-0.33c0-0.286,0.286-0.594,0.594-0.594
	c0.066,0,0.154,0.044,0.242,0.088c0.462,0.33,2.222,1.716,2.222,2.178c0,0.352-0.33,0.704-0.638,0.704
	C131.965,22.729,131.833,22.686,131.723,22.554z M133.659,21.431c-0.132,0-0.242-0.044-0.352-0.154
	c-0.308-0.374-1.408-1.408-1.958-1.826c-0.132-0.088-0.176-0.22-0.176-0.352c0-0.242,0.22-0.506,0.506-0.506
	c0.11,0,0.22,0.044,0.352,0.11c0.132,0.088,2.333,1.474,2.333,2.068c0,0.154-0.088,0.308-0.198,0.44
	C134.099,21.277,133.879,21.431,133.659,21.431z"/>
<path fill="#FFFFFF" d="M138.864,35.161c-0.902-1.298-2.046-2.486-3.125-3.499c-0.11-0.11-0.154-0.22-0.154-0.352
	c0-0.286,0.286-0.55,0.594-0.55c0.396,0,2.398,1.386,3.982,2.948c0.154,0.132,0.22,0.33,0.22,0.55c0,0.55-0.484,1.232-0.99,1.232
	C139.216,35.491,139.018,35.403,138.864,35.161z"/>
<path fill="#FFFFFF" d="M156.836,30.057c0.176,0.924,0.242,1.848,0.242,2.794c0,2.002-0.418,3.256-1.166,3.256
	c-0.749,0-4.753-2.311-4.753-3.081c0-0.066,0.044-0.11,0.154-0.11c0.132,0,0.33,0.066,0.638,0.22c1.123,0.55,2.354,0.99,3.323,1.188
	c0.066,0.022,0.11,0.022,0.154,0.022c0.22,0,0.22-1.87,0.22-1.958c0-0.726-0.066-1.496-0.198-2.266l-7.327,0.33
	c-0.264,0-0.484,0.022-0.682,0.022c-0.242,0-0.396-0.022-0.506-0.11c-0.352-0.308-0.682-0.924-0.682-1.123
	c0-0.088,0.044-0.132,0.154-0.132c0.044,0,0.088,0,0.154,0.022c0.286,0.066,0.594,0.088,0.858,0.088h0.264l7.481-0.33
	c-0.176-0.506-0.374-1.012-0.616-1.475c-0.088-0.154-0.132-0.264-0.132-0.374c0-0.396,0.88-0.572,0.88-0.572
	c0.176,0,0.33,0.132,0.462,0.396l0.088,0.154c0.968-0.594,1.827-1.254,2.619-2.068l-6.381,0.396
	c-0.22,0.022-0.418,0.022-0.572,0.022c-0.286,0-0.506-0.044-0.638-0.176c-0.286-0.286-0.572-0.836-0.572-1.034
	c0-0.11,0.066-0.154,0.176-0.154c0.044,0,0.088,0,0.132,0.022c0.264,0.066,0.55,0.088,0.836,0.088h0.242l7.701-0.484h0.286
	c0.506,0,1.078,0.418,1.078,0.814c0,0.286-0.374,0.462-0.484,0.572c-1.496,1.408-2.685,2.333-3.96,3.125
	c0.088,0.22,0.176,0.462,0.242,0.682l6.469-0.286c0.396-0.022,0.792-0.066,1.144-0.176c0.066-0.022,0.132-0.022,0.198-0.022
	c0.396,0,1.188,0.66,1.188,1.034c0,0.22-0.242,0.308-0.55,0.33L156.836,30.057z M149.157,22.62
	c-0.374,1.056-0.858,2.134-1.364,3.102c-0.11,0.22-0.22,0.33-0.396,0.33c-0.11,0-0.968-0.396-0.968-0.792
	c0-0.11,0.044-0.22,0.132-0.352c0.77-1.298,1.496-2.948,1.937-4.489c0.088-0.308,0.176-0.44,0.418-0.44c0.198,0,0.88,0.11,0.88,0.55
	c0,0.066-0.022,0.198-0.22,0.858l8.625-0.506c2.112-2.949,2.134-3.807,2.134-4.093v-0.176c0-0.198,0.066-0.308,0.22-0.308
	c0.352,0,1.364,0.66,1.364,1.078c0,0.242-0.968,1.804-2.442,3.433l4.378-0.264h0.198c0.572,0,0.968,0.484,0.968,0.748
	c0,0.242-0.198,0.44-0.286,0.572c-1.606,2.772-2.464,3.521-2.772,3.521c-0.088,0-0.154-0.066-0.154-0.22
	c0-0.176,0.088-0.44,0.264-0.792c0.418-0.792,0.77-1.606,1.078-2.53L149.157,22.62z M152.15,21.079
	c-0.176,0-0.264-0.132-0.396-0.352c-0.55-1.012-1.188-1.98-1.826-2.772c-0.088-0.11-0.132-0.198-0.132-0.286
	c0-0.242,0.396-0.616,0.704-0.616c0.11,0,0.22,0.066,0.352,0.22c0.682,0.792,2.178,2.575,2.178,3.059
	C153.03,20.683,152.326,21.079,152.15,21.079z M155.979,20.353c-0.154,0-0.264-0.11-0.352-0.33c-0.396-0.99-0.968-2.002-1.518-2.838
	c-0.066-0.11-0.11-0.22-0.11-0.308c0-0.33,0.572-0.55,0.77-0.55c0.506,0,2.179,3.146,2.179,3.344
	C156.947,20.155,156.044,20.353,155.979,20.353z"/>
<path fill="#FFFFFF" d="M173.759,34.149c-2.134,0-3.411-2.31-3.411-5.325c0-3.036,1.562-6.073,3.674-8.383
	c-1.21,0.44-2.904,0.88-3.344,0.88c-0.11,0-0.22-0.022-0.33-0.066c-0.176-0.11-0.858-0.704-0.858-1.1
	c0-0.066,0.022-0.132,0.066-0.176c0.044-0.022,0.088-0.044,0.154-0.044c0.198,0,0.484,0.11,0.748,0.11
	c0.066,0,0.11-0.022,0.154-0.022c1.738-0.352,4.511-1.056,4.995-1.474c0.11-0.088,0.22-0.132,0.352-0.132
	c0.418,0,0.924,0.462,0.924,0.814c0,0.154-0.088,0.308-0.286,0.462c-2.882,2.024-4.841,5.963-4.841,9.109
	c0,3.234,1.43,3.983,1.958,3.983c4.665,0,6.821-10.826,6.821-11.684c0-0.242-0.022-0.418-0.022-0.572
	c0-0.264,0.044-0.682,0.792-0.682c0.308,0,0.638,0.132,0.66,0.572c0.11,1.232,0.682,6.117,2.266,7.481
	c0.198,0.154,0.44,0.396,0.44,0.814c0,0.462-0.308,1.012-0.704,1.012c-0.836,0-1.958-2.178-2.707-5.765
	C180.118,28.538,177.697,34.149,173.759,34.149z M184.936,22.025c-0.154,0-0.308-0.044-0.44-0.22
	c-0.638-0.748-1.474-1.518-1.936-1.87c-0.11-0.088-0.154-0.198-0.154-0.308c0-0.286,0.264-0.572,0.572-0.572
	c0.088,0,0.198,0.022,0.286,0.088c0.616,0.374,1.892,1.518,2.156,1.87c0.066,0.11,0.11,0.22,0.11,0.33
	c0,0.154-0.066,0.286-0.132,0.418C185.31,21.894,185.134,22.025,184.936,22.025z M186.125,20.551
	c-0.66-0.704-1.497-1.452-2.002-1.848c-0.11-0.088-0.154-0.198-0.154-0.308c0-0.286,0.286-0.572,0.594-0.572
	c0.11,0,0.242,0.044,0.352,0.132c1.694,1.32,2.201,1.716,2.201,2.134c0,0.154-0.044,0.638-0.594,0.638
	C186.389,20.727,186.256,20.683,186.125,20.551z"/>
<path fill="#FFFFFF" d="M192.018,19.517c0-0.088-0.022-0.176-0.044-0.308c-0.044-0.154-0.176-0.264-0.176-0.396v-0.044
	c0.022-0.088,0.154-0.132,0.352-0.132c0.264,0,1.32,0.11,1.32,0.748c0,0.176-0.044,0.353-0.066,0.506
	c-0.418,2.574-1.056,7.151-1.056,9.989c0,0.33,0,0.638,0.022,0.902c0.374-0.814,1.078-2.002,1.232-2.333
	c0.154-0.33,0.308-0.484,0.418-0.484c0.088,0,0.176,0.11,0.176,0.33c0,0.132-0.022,0.308-0.088,0.506
	c-0.11,0.506-0.99,4.247-1.122,4.687c-0.11,0.33-0.374,0.44-0.638,0.44c-0.418,0-1.276-0.022-1.276-4.115
	c0-3.455,0.704-8.075,0.946-10.166V19.517z M203.481,20.111c0.594,0.022,0.88,0.506,0.88,0.924c0,0.308-0.154,0.572-0.484,0.572
	c-1.298,0-4.907,0.33-6.359,0.616c-0.374,0.088-0.704,0.11-0.924,0.11c-0.264,0-0.418-0.044-0.418-0.154
	c0-0.154,0.286-0.396,0.946-0.748c1.254-0.66,5.391-1.32,6.293-1.32H203.481z M204.076,32.631c-2.288,0-6.513-1.122-7.327-3.322
	c-0.11-0.264-0.154-0.462-0.154-0.616c0-0.198,0.088-0.286,0.198-0.286c0.154,0,0.374,0.132,0.594,0.418
	c1.188,1.562,5.193,2.156,6.403,2.223h0.066c0.198,0,0.396-0.066,0.572-0.066h0.088c0.198,0.044,0.946,0.484,0.946,0.99
	c0,0.044-0.022,0.088-0.022,0.132c-0.088,0.44-0.242,0.484-1.056,0.528H204.076z"/>
<path fill="#FFFFFF" d="M212.843,35.909c-1.65,0-3.014-1.342-3.014-2.992s1.408-3.015,3.059-3.015c1.65,0,2.97,1.364,2.97,3.015
	S214.494,35.909,212.843,35.909z M212.843,31.091c-1.012,0-1.826,0.814-1.826,1.826s0.814,1.804,1.826,1.804
	s1.827-0.792,1.827-1.804S213.855,31.091,212.843,31.091z"/>
<path fill="#FFFFFF" d="M31.22,211.616c-0.152,0.465-0.182,0.558-0.425,1.395c-0.699,2.605-1.701,5.116-2.795,7.193
	c-0.243,0.435-0.243,0.435-0.881,1.427c-0.121,0.217-0.152,0.248-0.334,0.558c-0.668-0.619-0.942-0.837-1.853-1.302
	c1.914-2.48,3.524-6.325,4.192-9.953L31.22,211.616z M32.526,198.749c0.668,0.496,1.884,0.992,3.403,1.488
	c1.944,0.619,5.377,1.209,7.018,1.209c0.091,0,0.243,0,0.456-0.031l-0.031,2.201c-0.729,0.124-1.306,0.372-2.278,0.931
	c-2.37,1.426-3.646,2.945-3.646,4.372c0,0.341,0.152,0.867,0.334,1.209c0.365,0.62,0.365,0.62,2.4,2.821
	c1.975,2.14,2.795,3.782,2.795,5.55c0,2.884-2.279,5.023-5.438,5.023c-2.126,0-3.949-0.775-6.045-2.604
	c0.304-0.714,0.395-0.992,0.638-2.202c1.731,1.768,3.463,2.667,5.225,2.667c1.884,0,3.342-1.271,3.342-2.977
	c0-0.806-0.304-1.705-0.942-2.604c-0.516-0.807-0.516-0.807-2.521-3.069c-1.215-1.364-1.731-2.45-1.731-3.752
	c0-1.644,1.033-3.225,3.007-4.744c0.76-0.558,1.276-0.868,1.944-1.147c-2.37-0.154-4.921-0.806-7.838-1.984
	c-0.486-0.186-0.607-0.248-1.002-0.341L32.526,198.749z M46.471,210.655c1.883,2.635,2.157,3.069,3.129,4.961
	c0.851,1.705,1.307,2.79,2.036,4.991l-1.975,1.055c-0.729-3.163-3.19-8.124-5.043-10.108L46.471,210.655z"/>
<path fill="#FFFFFF" d="M56.526,205.849c1.094-0.031,4.253-0.402,6.714-0.806c0.517-2.295,0.911-5.271,0.911-6.573
	c0-0.062,0-0.217,0-0.403l2.431,0.279c-0.213,0.682-0.304,1.209-0.577,2.977c-0.152,0.899-0.365,2.046-0.638,3.534
	c0.699-0.062,1.094-0.093,1.792-0.093c2.157,0,3.433,0.372,4.375,1.302c1.063,1.023,1.488,2.45,1.488,4.992
	c0,4.744-0.79,8.868-2.035,10.666c-0.729,1.055-1.55,1.457-2.978,1.457c-1.306,0-2.582-0.341-4.587-1.209
	c0.061-0.465,0.061-0.682,0.061-1.085c0-0.465,0-0.683-0.091-1.24c1.731,0.899,3.433,1.427,4.527,1.427
	c0.759,0,1.336-0.496,1.731-1.488c0.82-1.984,1.276-5.147,1.276-8.62c0-3.286-0.911-4.341-3.737-4.341
	c-0.668,0-1.063,0.031-2.188,0.155c-1.124,4.898-2.521,8.867-4.587,13.146c-0.395,0.744-1.033,1.984-1.975,3.721l-2.066-1.24
	c0.942-1.21,2.096-3.256,3.16-5.612c1.428-3.101,2.339-5.829,3.342-9.829c-2.613,0.403-4.071,0.651-4.344,0.714
	c-0.699,0.123-0.942,0.186-1.762,0.402L56.526,205.849z M76.486,202.996c3.099,3.411,4.922,6.604,6.35,10.977l-1.944,1.147
	c-1.154-4.279-3.25-8.062-6.198-11.132L76.486,202.996z"/>
<path fill="#FFFFFF" d="M88.396,208.236c0.699-0.062,0.699-0.062,3.068-0.527c4.041-0.774,6.866-1.116,9.266-1.116
	c2.278,0,3.979,0.372,5.225,1.179c1.701,1.085,2.583,2.79,2.583,4.93c0,3.317-1.854,6.263-5.226,8.372
	c-2.309,1.426-4.284,2.077-8.81,2.945c-0.395-1.24-0.517-1.52-0.972-2.264c3.22-0.217,5.985-1.023,8.537-2.512
	c1.215-0.682,1.884-1.24,2.613-2.201c1.033-1.396,1.549-2.791,1.549-4.217c0-1.551-0.699-2.791-1.944-3.473
	c-0.759-0.434-2.157-0.682-3.737-0.682c-3.129,0-9.205,1.085-11.575,2.077L88.396,208.236z M92.861,198.562
	c2.977,1.147,7.382,1.86,12.365,1.923l-0.334,2.232c-4.952-0.279-8.688-0.869-12.759-2.047L92.861,198.562z"/>
<path fill="#FFFFFF" d="M118.958,199.803c0.79,0.155,1.458,0.187,2.947,0.187c1.671,0,4.102-0.094,5.104-0.218
	c0.547-0.062,0.79-0.155,1.124-0.372l1.61,1.303c-0.395,0.558-0.456,0.744-1.671,4.496c-0.668,2.107-0.881,2.697-1.428,4.34
	c2.917,0.311,5.165,0.962,8.294,2.45c0.273-1.736,0.365-3.069,0.365-6.294c0-0.683-0.03-0.962-0.122-1.52l2.278,0.031
	c-0.091,0.558-0.091,0.774-0.122,1.922c-0.091,3.162-0.212,4.837-0.547,6.729c1.641,0.868,2.674,1.426,4.162,2.325
	c0.243,0.155,0.456,0.279,0.881,0.465l-0.82,2.388c-0.942-0.775-2.491-1.799-4.739-3.069c-0.699,2.232-1.641,3.906-3.129,5.612
	c-1.397,1.581-2.977,2.821-4.831,3.782c-0.699-0.837-0.911-1.085-1.61-1.612c2.309-1.085,3.554-2.016,4.921-3.565
	c1.397-1.581,2.37-3.38,2.795-5.209c-2.734-1.458-5.286-2.232-8.385-2.573c-0.972,3.007-2.096,5.983-2.856,7.472
	c-1.093,2.14-2.217,3.069-3.676,3.069c-2.278,0-4.01-2.201-4.01-5.084c0-2.543,1.307-4.807,3.615-6.14
	c1.58-0.961,3.068-1.302,5.469-1.333c1.002-3.039,1.367-4.217,2.43-7.813c-2.4,0.186-2.855,0.217-5.742,0.31
	c-1.215,0.031-1.519,0.062-2.218,0.155L118.958,199.803z M118.958,213.259c-0.911,0.962-1.458,2.232-1.458,3.566
	c0,1.643,0.881,2.945,1.975,2.945c1.246,0,2.278-1.922,4.496-8.526C121.692,211.43,120.173,212.019,118.958,213.259z"/>
<path fill="#FFFFFF" d="M157.54,206.065c-0.243,0.621-0.273,0.744-0.638,1.923c-1.641,5.612-4.74,10.294-9.054,13.674
	c-0.577-0.714-0.911-0.992-1.701-1.551c1.975-1.333,3.463-2.759,5.043-4.837c1.944-2.604,3.099-4.961,4.01-8.31h-5.013
	c-1.276,0-2.157,0.062-2.886,0.187v-2.264c0.759,0.124,1.519,0.155,2.947,0.155h3.25c1.61,0,2.309-0.031,2.886-0.124L157.54,206.065
	z M171.91,203.803c-0.395,0.403-0.395,0.403-0.851,0.961c-0.729,0.868-2.795,3.008-3.919,4.062
	c-0.851,0.775-0.851,0.775-2.582,2.171c1.063,1.612,2.278,3.132,3.585,4.434c1.823,1.829,3.433,3.038,5.924,4.341
	c-0.759,0.682-1.094,1.085-1.61,1.953c-2.491-1.52-4.618-3.379-6.532-5.674c-1.337-1.581-2.431-3.225-3.433-5.146
	c-0.729-1.396-1.033-2.14-1.61-3.938c0.183,2.698,0.243,4.403,0.243,6.046v9.178c0,1.954-0.607,2.48-2.765,2.48
	c-1.154,0-2.4-0.062-3.858-0.217c-0.061-0.898-0.182-1.333-0.486-2.139c1.701,0.31,2.886,0.434,4.071,0.434
	c0.851,0,1.033-0.155,1.033-0.899v-21.177c0-1.116-0.061-2.108-0.213-3.132h2.4c-0.182,0.992-0.243,1.984-0.243,3.101v2.14
	c0.395,2.201,1.093,4.062,2.552,6.636c3.433-2.946,5.438-5.179,6.41-7.132L171.91,203.803z"/>
<path fill="#FFFFFF" d="M186.401,200.237c0-1.147-0.061-1.923-0.182-2.854h2.248c-0.152,0.899-0.182,1.675-0.182,2.854v1.922h1.519
	c1.002,0,1.762-0.031,2.643-0.155v2.016c-0.79-0.093-1.428-0.124-2.643-0.124h-3.129c0,0.496,0,0.868,0,1.116
	c-0.03,1.054-0.03,1.054-0.121,3.163h3.068c0.972,0,1.519-0.031,2.126-0.125c-0.061,0.496-0.061,0.621-0.122,3.318
	c-0.061,3.689-0.456,8.092-0.911,10.263c-0.517,2.419-0.972,2.821-3.221,2.821c-0.516,0-1.215-0.062-2.157-0.186
	c-0.061-0.838-0.122-1.334-0.304-2.016c0.972,0.279,1.731,0.403,2.46,0.403c1.155,0,1.307-0.279,1.702-2.729
	c0.425-2.884,0.668-6.388,0.699-10.046h-3.403c-0.243,3.813-0.395,5.302-0.851,7.41c-0.607,2.729-1.792,5.333-3.585,7.658
	c-0.577-0.837-0.851-1.146-1.428-1.612c2.37-3.038,3.25-5.426,3.737-9.922c0.273-2.636,0.425-5.302,0.486-9.519h-0.941
	c-1.155,0-1.792,0.031-2.552,0.155v-2.077c0.82,0.123,1.549,0.186,2.643,0.186h2.4V200.237z M195.971,203.059
	c-0.941,1.86-1.731,3.038-3.19,4.774c-0.364-0.527-0.79-0.837-1.519-1.209c2.036-2.201,3.676-4.961,4.587-7.721
	c0.152-0.465,0.304-0.992,0.334-1.178c0.061-0.403,0.061-0.403,0.091-0.59l2.065,0.435c-0.304,0.713-0.304,0.775-0.456,1.147
	c-0.456,1.146-0.547,1.395-1.094,2.573h8.507c1.428,0,2.37-0.062,3.099-0.187v2.078c-0.881-0.094-1.792-0.124-3.038-0.124H195.971z
	 M197.125,208.888c-0.79,1.333-1.397,2.108-2.491,3.286c-0.425-0.465-0.79-0.713-1.489-1.085c1.732-1.705,2.643-2.977,3.524-4.961
	c0.365-0.837,0.547-1.457,0.668-2.201l1.884,0.527c-0.152,0.341-0.547,1.24-0.912,2.107c-0.091,0.248-0.152,0.342-0.273,0.621h6.684
	c1.155,0,1.671-0.031,2.4-0.187v2.046c-0.76-0.123-1.337-0.154-2.461-0.154h-3.16c-0.122,3.008-0.152,3.162-0.304,4.371h4.405
	c1.154,0,1.944-0.062,2.734-0.186v2.108c-0.881-0.124-1.61-0.187-2.734-0.187h-4.071c0.82,2.109,1.428,3.163,2.643,4.527
	c1.428,1.581,2.765,2.48,5.134,3.535c-0.607,0.65-0.881,1.054-1.246,1.891c-2.4-1.271-3.979-2.573-5.529-4.558
	c-1.033-1.302-1.519-2.201-2.066-3.782c-0.547,1.736-1.155,2.883-2.127,4.123c-1.428,1.799-3.099,3.039-5.681,4.248
	c-0.304-0.713-0.608-1.178-1.155-1.705c2.613-0.961,4.587-2.48,6.016-4.589c0.729-1.085,1.185-2.232,1.519-3.69h-3.402
	c-1.215,0-1.944,0.031-2.795,0.155v-2.046c0.759,0.124,1.458,0.154,2.825,0.154h3.676c0.212-1.519,0.273-2.263,0.304-4.371H197.125z
	"/>
<path fill="#FFFFFF" d="M224.103,197.354c0.881,1.612,2.339,3.193,4.497,4.868c-0.577,0.589-0.881,1.022-1.124,1.581
	c-2.005-1.736-3.038-2.884-4.193-4.62c-1.914,2.697-3.494,4.341-6.44,6.697c-0.334-0.837-0.577-1.24-1.033-1.768
	c1.823-1.24,2.582-1.891,3.979-3.349c1.124-1.209,1.914-2.294,2.491-3.41H224.103z M227.323,224.204
	c-0.547-1.271-0.729-1.643-1.276-2.573c-1.64,0.62-4.678,1.55-8.385,2.604c-0.243,0.093-0.273,0.093-0.881,0.279l-0.578-1.984
	c0.699-0.094,0.851-0.094,2.127-0.403v-13.891c0-1.581-0.03-2.14-0.091-2.884c0.577,0.062,1.246,0.094,2.279,0.094h1.64v-1.179
	c0-0.775-0.03-1.24-0.152-1.86h2.005c-0.122,0.527-0.152,1.023-0.152,1.86v1.179h1.246c1.215,0,1.975-0.031,2.521-0.125
	c-0.061,0.807-0.091,1.52-0.091,2.605v4.774c0,1.24,0.03,1.984,0.091,2.79c-0.547-0.093-1.246-0.123-2.309-0.123h-5.165v6.324
	c2.218-0.589,3.129-0.867,5.013-1.55c-0.212-0.372-0.365-0.62-0.486-0.806c-0.547-0.931-0.668-1.147-1.337-2.078l1.489-0.775
	c1.367,1.892,2.917,4.372,4.131,6.667L227.323,224.204z M225.834,209.508v-2.543h-5.681v2.543H225.834z M220.153,213.817h5.681
	v-2.821h-5.681V213.817z M234.523,199.431c0-0.807-0.061-1.426-0.182-2.17h2.248c-0.152,0.619-0.182,1.178-0.182,2.17v0.744h3.494
	c1.276,0,2.4-0.062,3.403-0.155c-0.061,0.589-0.091,1.271-0.091,2.047v1.829c0,0.837,0.03,1.457,0.091,1.892h-1.914v-3.938h-10.998
	v2.946c0.607,0.062,1.336,0.093,2.339,0.093h5.56c1.336,0,2.187-0.031,2.734-0.124c-0.091,0.744-0.122,1.364-0.122,2.388v3.038
	c0,1.147,0.031,1.768,0.122,2.295c-0.638-0.093-1.489-0.124-2.643-0.124h-6.38v3.131h7.747c1.215,0,1.884-0.03,2.583-0.123
	c-0.061,0.774-0.091,1.519-0.091,2.604v4.403c0,1.364,0.03,2.294,0.122,3.008h-1.975v-1.706h-8.355v1.799h-2.005
	c0.122-0.807,0.152-1.551,0.152-3.008v-14.604c0-0.992,0-1.364-0.03-2.108h-1.641c0.061-0.558,0.091-1.116,0.091-1.798v-1.984
	c0-0.838-0.03-1.365-0.091-1.892c0.76,0.062,1.519,0.093,2.825,0.093h3.19V199.431z M232.001,222.003h8.385v-4.806h-8.385V222.003z
	 M232.032,210.748h7.048V206.5h-7.048V210.748z"/>
<line fill="none" stroke="#FFFFFF" stroke-miterlimit="10" x1="48" y1="260.5" x2="215" y2="260.5"/>
<path fill="#FFFFFF" d="M36.565,242.779c0,1.065,0.028,1.59,0.115,2.16h-2.146c0.087-0.51,0.115-1.14,0.115-2.13v-7.905
	c0-0.825-0.028-1.26-0.115-1.95c0.591,0.03,0.951,0.045,1.829,0.045h4.033c0.908,0,1.369-0.03,1.974-0.105v2.025
	c-0.519-0.075-1.052-0.105-1.974-0.105h-3.831v3.18h3.083c0.893,0,1.396-0.03,1.959-0.105v1.995
	c-0.533-0.075-1.081-0.105-1.959-0.105h-3.083V242.779z"/>
<path fill="#FFFFFF" d="M55.808,232.999c-0.086,0.555-0.115,1.095-0.115,2.04v5.325c0,3.105-1.771,4.845-4.911,4.845
	c-1.6,0-2.925-0.51-3.717-1.41c-0.734-0.825-1.08-1.95-1.08-3.45v-5.295c0-0.93-0.029-1.515-0.115-2.055h2.146
	c-0.087,0.51-0.115,1.08-0.115,2.055v5.295c0,2.025,1.008,3.09,2.952,3.09c1.931,0,2.925-1.065,2.925-3.105v-5.28
	c0-0.96-0.029-1.5-0.115-2.055H55.808z"/>
<path fill="#FFFFFF" d="M68.422,243.034c0.865,1.215,1.023,1.425,1.441,1.905h-2.665c-0.216-0.45-0.576-1.08-0.907-1.575l-2.867-4.2
	l-1.57,1.635v2.205c0,0.885,0.029,1.305,0.13,1.935h-2.132c0.087-0.675,0.115-1.14,0.115-1.935v-8.07
	c0-0.81-0.028-1.305-0.115-1.935h2.132c-0.086,0.495-0.13,1.08-0.13,1.935v3.495l3.674-3.975c0.562-0.6,0.835-0.96,1.123-1.455
	h2.723c-0.418,0.435-0.893,0.915-1.527,1.59l-3.082,3.285L68.422,243.034z"/>
<path fill="#FFFFFF" d="M81.804,244.939c-0.087-0.495-0.245-1.14-0.403-1.575l-0.576-1.635h-4.609l-0.576,1.635
	c-0.26,0.72-0.317,0.945-0.433,1.575h-2.362c0.217-0.405,0.504-1.08,0.764-1.77l3.169-8.655c0.273-0.75,0.389-1.125,0.461-1.515
	h2.507c0.071,0.36,0.158,0.6,0.489,1.515l3.198,8.655c0.359,0.96,0.532,1.38,0.734,1.77H81.804z M78.764,235.564
	c-0.057-0.165-0.101-0.345-0.259-0.84c-0.23,0.705-0.23,0.705-0.273,0.84l-1.498,4.44h3.572L78.764,235.564z"/>
<path fill="#FFFFFF" d="M96.821,232.999c-0.086,0.555-0.115,1.095-0.115,2.04v5.325c0,3.105-1.771,4.845-4.911,4.845
	c-1.6,0-2.925-0.51-3.717-1.41c-0.734-0.825-1.08-1.95-1.08-3.45v-5.295c0-0.93-0.029-1.515-0.115-2.055h2.146
	c-0.087,0.51-0.115,1.08-0.115,2.055v5.295c0,2.025,1.008,3.09,2.952,3.09c1.931,0,2.925-1.065,2.925-3.105v-5.28
	c0-0.96-0.029-1.5-0.115-2.055H96.821z"/>
<path fill="#FFFFFF" d="M106.096,244.939c-0.072-0.48-0.303-1.185-0.635-2.025l-2.074-5.145c-0.273-0.675-0.402-1.08-0.734-2.295
	c0.058,0.795,0.115,2.025,0.115,2.355v4.92c0,1.035,0.029,1.605,0.115,2.19h-2.017c0.087-0.6,0.115-1.185,0.115-2.19v-7.53
	c0-0.975-0.028-1.605-0.115-2.22h2.636c0.102,0.525,0.289,1.155,0.533,1.785l2.924,7.44l2.91-7.44
	c0.288-0.735,0.418-1.215,0.519-1.785h2.65c-0.087,0.72-0.115,1.215-0.115,2.22v7.53c0,1.095,0.028,1.635,0.115,2.19h-2.017
	c0.086-0.615,0.115-1.155,0.115-2.19v-4.98c0.058-1.305,0.101-2.07,0.115-2.295c-0.188,0.81-0.461,1.65-0.662,2.19l-2.161,5.28
	c-0.288,0.705-0.548,1.545-0.634,1.995H106.096z"/>
<path fill="#FFFFFF" d="M119.366,232.999c-0.086,0.57-0.115,1.035-0.115,1.935v8.07c0,0.885,0.029,1.365,0.115,1.935h-2.189
	c0.087-0.57,0.115-1.05,0.115-1.935v-8.07c0-0.93-0.028-1.335-0.115-1.935H119.366z"/>
<path fill="#FFFFFF" d="M143.06,244.939c-0.087-0.495-0.245-1.14-0.403-1.575l-0.576-1.635h-4.609l-0.576,1.635
	c-0.26,0.72-0.317,0.945-0.433,1.575H134.1c0.217-0.405,0.504-1.08,0.764-1.77l3.169-8.655c0.273-0.75,0.389-1.125,0.461-1.515H141
	c0.071,0.36,0.158,0.6,0.489,1.515l3.198,8.655c0.359,0.96,0.532,1.38,0.734,1.77H143.06z M140.02,235.564
	c-0.057-0.165-0.101-0.345-0.259-0.84c-0.23,0.705-0.23,0.705-0.273,0.84l-1.498,4.44h3.572L140.02,235.564z"/>
<path fill="#FFFFFF" d="M156.854,246.004c-0.288-0.39-0.418-0.525-1.368-1.515c-0.836,0.495-1.6,0.705-2.65,0.705
	c-1.527,0-2.81-0.51-3.746-1.5c-1.065-1.125-1.627-2.76-1.627-4.68c0-3.78,2.146-6.255,5.416-6.255c3.255,0,5.344,2.415,5.344,6.18
	c0,1.035-0.158,1.935-0.461,2.775c-0.26,0.675-0.49,1.05-1.08,1.77l0.403,0.405c0.331,0.33,0.604,0.57,0.937,0.84L156.854,246.004z
	 M154.189,240.904c0.245,0.315,0.533,0.615,1.123,1.215c0.635-0.81,0.894-1.71,0.894-3.21c0-1.485-0.403-2.715-1.152-3.495
	c-0.576-0.6-1.34-0.915-2.218-0.915c-0.879,0-1.643,0.315-2.233,0.915c-0.749,0.78-1.152,2.025-1.152,3.57
	c0,2.715,1.34,4.47,3.414,4.47c0.489,0,0.894-0.09,1.296-0.3c-0.446-0.45-0.734-0.72-1.152-1.05L154.189,240.904z"/>
<path fill="#FFFFFF" d="M171.525,232.999c-0.086,0.555-0.115,1.095-0.115,2.04v5.325c0,3.105-1.771,4.845-4.912,4.845
	c-1.599,0-2.924-0.51-3.716-1.41c-0.734-0.825-1.08-1.95-1.08-3.45v-5.295c0-0.93-0.029-1.515-0.115-2.055h2.146
	c-0.086,0.51-0.115,1.08-0.115,2.055v5.295c0,2.025,1.009,3.09,2.953,3.09c1.931,0,2.924-1.065,2.924-3.105v-5.28
	c0-0.96-0.028-1.5-0.115-2.055H171.525z"/>
<path fill="#FFFFFF" d="M182.82,244.939c-0.087-0.495-0.245-1.14-0.403-1.575l-0.576-1.635h-4.609l-0.576,1.635
	c-0.26,0.72-0.317,0.945-0.433,1.575h-2.362c0.216-0.405,0.505-1.08,0.764-1.77l3.169-8.655c0.273-0.75,0.389-1.125,0.461-1.515
	h2.506c0.072,0.36,0.159,0.6,0.49,1.515l3.197,8.655c0.36,0.96,0.533,1.38,0.735,1.77H182.82z M179.781,235.564
	c-0.059-0.165-0.102-0.345-0.26-0.84c-0.23,0.705-0.23,0.705-0.273,0.84l-1.498,4.44h3.572L179.781,235.564z"/>
<path fill="#FFFFFF" d="M195.528,244.939c-0.028-0.36-0.273-1.125-0.749-2.4c-0.777-2.07-1.281-2.625-2.391-2.625h-2.146v3.06
	c0,0.9,0.029,1.38,0.115,1.965h-2.146c0.087-0.63,0.115-1.035,0.115-1.95v-8.084c0-0.795-0.028-1.245-0.115-1.95
	c0.605,0.03,1.052,0.045,1.844,0.045h3.457c2.189,0,3.443,1.14,3.443,3.12c0,0.96-0.245,1.71-0.735,2.235
	c-0.403,0.435-0.777,0.63-1.599,0.87c0.907,0.3,1.182,0.72,2.607,4.229c0.115,0.27,0.475,1.08,0.677,1.485H195.528z
	 M193.138,238.204c0.532,0,1.037-0.195,1.368-0.54c0.303-0.315,0.461-0.75,0.461-1.32c0-1.08-0.591-1.635-1.771-1.635h-2.953v3.495
	H193.138z"/>
<path fill="#FFFFFF" d="M203.254,232.999c-0.086,0.57-0.115,1.035-0.115,1.935v8.07c0,0.885,0.029,1.365,0.115,1.935h-2.189
	c0.087-0.57,0.115-1.05,0.115-1.935v-8.07c0-0.93-0.028-1.335-0.115-1.935H203.254z"/>
<path fill="#FFFFFF" d="M216.837,232.999c-0.086,0.555-0.115,1.095-0.115,2.04v5.325c0,3.105-1.771,4.845-4.911,4.845
	c-1.6,0-2.925-0.51-3.717-1.41c-0.734-0.825-1.08-1.95-1.08-3.45v-5.295c0-0.93-0.029-1.515-0.115-2.055h2.146
	c-0.087,0.51-0.115,1.08-0.115,2.055v5.295c0,2.025,1.008,3.09,2.952,3.09c1.931,0,2.925-1.065,2.925-3.105v-5.28
	c0-0.96-0.029-1.5-0.115-2.055H216.837z"/>
<path fill="#FFFFFF" d="M225.75,244.939c-0.071-0.48-0.302-1.185-0.633-2.025l-2.074-5.145c-0.274-0.675-0.404-1.08-0.735-2.295
	c0.058,0.795,0.115,2.025,0.115,2.355v4.92c0,1.035,0.029,1.605,0.115,2.19h-2.017c0.087-0.6,0.115-1.185,0.115-2.19v-7.53
	c0-0.975-0.028-1.605-0.115-2.22h2.637c0.101,0.525,0.287,1.155,0.532,1.785l2.925,7.44l2.909-7.44
	c0.288-0.735,0.418-1.215,0.519-1.785h2.65c-0.086,0.72-0.115,1.215-0.115,2.22v7.53c0,1.095,0.029,1.635,0.115,2.19h-2.017
	c0.087-0.615,0.115-1.155,0.115-2.19v-4.98c0.058-1.305,0.101-2.07,0.115-2.295c-0.188,0.81-0.461,1.65-0.663,2.19l-2.16,5.28
	c-0.288,0.705-0.547,1.545-0.634,1.995H225.75z"/>
</svg>
